<svg width="27" height="28" viewBox="0 0 27 28" fill="none" xmlns="http://www.w3.org/2000/svg">
<path d="M7.94122 3.70049H4.76473V0.528641C4.76473 0.236831 4.52756 0 4.23532 0C3.94308 0 3.7059 0.236831 3.7059 0.528641V3.70049H0.529415C0.237178 3.70049 -1.05017e-07 3.93732 -1.05017e-07 4.22913C-1.05017e-07 4.52094 0.237178 4.75777 0.529415 4.75777H3.7059V7.92962C3.7059 8.22143 3.94308 8.45826 4.23532 8.45826C4.52756 8.45826 4.76473 8.22143 4.76473 7.92962V4.75777H7.94122C8.23346 4.75777 8.47064 4.52094 8.47064 4.22913C8.47064 3.93732 8.23346 3.70049 7.94122 3.70049Z" transform="translate(6.88232 6.87305)" fill="white"/>
<path d="M26.8525 27.105L18.9859 18.9359C20.9924 16.9266 22.2354 14.1565 22.2354 11.1015C22.2354 4.9798 17.2483 0 11.1177 0C4.98709 0 -1.03502e-08 4.9798 -1.03502e-08 11.1015C-1.03502e-08 17.2231 4.98709 22.2029 11.1177 22.2029C13.8087 22.2029 16.2785 21.2424 18.2034 19.6485L26.089 27.8377C26.1928 27.9461 26.3315 28 26.4707 28C26.6031 28 26.7349 27.9508 26.8376 27.8525C27.0483 27.65 27.0547 27.3154 26.8525 27.105ZM1.05883 11.1015C1.05883 5.56289 5.57103 1.05728 11.1177 1.05728C16.6644 1.05728 21.1766 5.56289 21.1766 11.1015C21.1766 16.64 16.6644 21.1456 11.1177 21.1456C5.57103 21.1456 1.05883 16.64 1.05883 11.1015Z" fill="white"/>
</svg>
