<svg width="119" height="20" viewBox="0 0 119 20" fill="none" xmlns="http://www.w3.org/2000/svg">
<path d="M4.27245 9.71488H7.95849C10.5974 9.71488 11.8958 8.00718 11.8958 6.29949C11.8958 4.5918 10.5974 2.8841 7.95849 2.8841H3.09962V19.6954H0V0H7.9166C12.6498 0 14.9955 3.14975 14.9955 6.26154C14.9955 9.0318 13.1106 11.6882 9.38264 12.2954L16.2521 19.6954H12.189L4.27245 11.081V9.71488Z" transform="translate(0 0.265625)" fill="black"/>
<path d="M14.3253 14.9518H5.48717L3.39283 19.9231H-3.19571e-07L8.71245 -9.04769e-09H11.0162L19.7287 19.961H16.3777L14.3253 14.9518ZM6.61811 12.2954H13.1524L9.88528 4.5159L6.61811 12.2954Z" transform="translate(16.043 0.0390625)" fill="black"/>
<path d="M3.14151 19.6954H6.39141e-07V0H2.55509L9.71773 9.56308L16.8804 0H19.3517V19.6954H16.2521V5.84411L10.5555 13.5098H8.79622L3.14151 5.84411V19.6954Z" transform="translate(37.4473 0.265625)" fill="black"/>
<path d="M3.14151 19.6954H1.27828e-06V0H2.55509L9.71773 9.56308L16.8804 0H19.3517V19.6954H16.2521V5.84411L10.5555 13.5098H8.79622L3.09962 5.84411V19.6954H3.14151Z" transform="translate(60.4434 0.265625)" fill="black"/>
<path d="M3.09962 0V19.6954H2.55656e-06V0H3.09962ZM3.68603 9.14565L11.2675 0H15.163L6.86943 9.79078L16.0426 19.6954H12.0215L3.72792 10.5877V9.14565H3.68603Z" transform="translate(83.3965 0.265625)" fill="black"/>
<path d="M14.3253 14.9898H5.48718L3.39284 19.961H0L8.71246 -1.80954e-08H11.0162L19.7287 19.961H16.3778L14.3253 14.9898ZM6.66 12.3333H13.1944L9.92718 4.55385L6.66 12.3333Z" transform="translate(99.2712)" fill="black"/>
</svg>
