<svg width="10" height="11" viewBox="0 0 10 11" fill="none" xmlns="http://www.w3.org/2000/svg">
<path d="M4.51562 5.00713L0.09375 9.46317C-0.03125 9.58913 -0.03125 9.79383 0.09375 9.90405C0.15625 9.98277 0.234375 10.0143 0.3125 10.0143C0.390625 10.0143 0.46875 9.98277 0.53125 9.91979L5 5.41652L9.45312 9.91979C9.51562 9.98277 9.59375 10.0143 9.67188 10.0143C9.75 10.0143 9.82812 9.98277 9.89062 9.91979C10.0156 9.79383 10.0156 9.58913 9.89062 9.47891L5.48438 5.00713L9.90625 0.535354C10.0312 0.409388 10.0312 0.204694 9.90625 0.0944742C9.78125 -0.0314914 9.57812 -0.0314914 9.46875 0.0944742L5 4.59774L0.53125 0.0944742C0.40625 -0.0314914 0.203125 -0.0314914 0.09375 0.0944742C-0.03125 0.22044 -0.03125 0.425134 0.09375 0.535354L4.51562 5.00713Z" transform="translate(0 0.0214844)" fill="white"/>
</svg>
