<svg width="15" height="13" viewBox="0 0 15 13" fill="none" xmlns="http://www.w3.org/2000/svg">
<path d="M0.272956 0.487796C0.423705 0.487796 0.545911 0.378599 0.545911 0.243898C0.545911 0.109197 0.423705 0 0.272956 0C0.122206 0 0 0.109197 0 0.243898C0 0.378599 0.122206 0.487796 0.272956 0.487796Z" transform="translate(12.0157 5.89062)" fill="#828282"/>
<path d="M0.272956 0.487796C0.423705 0.487796 0.545911 0.378599 0.545911 0.243898C0.545911 0.109197 0.423705 0 0.272956 0C0.122206 0 0 0.109197 0 0.243898C0 0.378599 0.122206 0.487796 0.272956 0.487796Z" transform="translate(2.18958 5.89062)" fill="#828282"/>
<path d="M0.272956 0.487796C0.423705 0.487796 0.545911 0.378599 0.545911 0.243898C0.545911 0.109197 0.423705 0 0.272956 0C0.122206 0 0 0.109197 0 0.243898C0 0.378599 0.122206 0.487796 0.272956 0.487796Z" transform="translate(3.00842 6.62109)" fill="#828282"/>
<path d="M0.272956 0.487796C0.423705 0.487796 0.545911 0.378599 0.545911 0.243898C0.545911 0.109197 0.423705 0 0.272956 0C0.122206 0 0 0.109197 0 0.243898C0 0.378599 0.122206 0.487796 0.272956 0.487796Z" transform="translate(4.64575 6.62109)" fill="#828282"/>
<path d="M0.272956 0.487796C0.423705 0.487796 0.545911 0.378599 0.545911 0.243898C0.545911 0.109197 0.423705 0 0.272956 0C0.122206 0 0 0.109197 0 0.243898C0 0.378599 0.122206 0.487796 0.272956 0.487796Z" transform="translate(3.8269 7.35352)" fill="#828282"/>
<path d="M0.272956 0.487796C0.423705 0.487796 0.545911 0.378599 0.545911 0.243898C0.545911 0.109197 0.423705 0 0.272956 0C0.122206 0 0 0.109197 0 0.243898C0 0.378599 0.122206 0.487796 0.272956 0.487796Z" transform="translate(5.46497 7.35352)" fill="#828282"/>
<path d="M0.272956 0.487796C0.423705 0.487796 0.545911 0.378599 0.545911 0.243898C0.545911 0.109197 0.423705 0 0.272956 0C0.122206 0 0 0.109197 0 0.243898C0 0.378599 0.122206 0.487796 0.272956 0.487796Z" transform="translate(6.28381 8.08594)" fill="#828282"/>
<path d="M0.272956 0.487796C0.423705 0.487796 0.545911 0.378599 0.545911 0.243898C0.545911 0.109197 0.423705 0 0.272956 0C0.122206 0 0 0.109197 0 0.243898C0 0.378599 0.122206 0.487796 0.272956 0.487796Z" transform="translate(7.92151 8.08594)" fill="#828282"/>
<path d="M0.272956 0.487796C0.423705 0.487796 0.545911 0.378599 0.545911 0.243898C0.545911 0.109197 0.423705 0 0.272956 0C0.122206 0 0 0.109197 0 0.243898C0 0.378599 0.122206 0.487796 0.272956 0.487796Z" transform="translate(8.74036 7.35352)" fill="#828282"/>
<path d="M0.272956 0.487796C0.423705 0.487796 0.545911 0.378599 0.545911 0.243898C0.545911 0.109197 0.423705 0 0.272956 0C0.122206 0 0 0.109197 0 0.243898C0 0.378599 0.122206 0.487796 0.272956 0.487796Z" transform="translate(7.10266 8.81641)" fill="#828282"/>
<path d="M0.272956 0.487796C0.423705 0.487796 0.545911 0.378599 0.545911 0.243898C0.545911 0.109197 0.423705 0 0.272956 0C0.122206 0 0 0.109197 0 0.243898C0 0.378599 0.122206 0.487796 0.272956 0.487796Z" transform="translate(9.55957 6.62109)" fill="#828282"/>
<path d="M0.272956 0.487796C0.423705 0.487796 0.545911 0.378599 0.545911 0.243898C0.545911 0.109197 0.423705 0 0.272956 0C0.122206 0 0 0.109197 0 0.243898C0 0.378599 0.122206 0.487796 0.272956 0.487796Z" transform="translate(11.1969 6.62109)" fill="#828282"/>
<path d="M12.4356 7.79741L14.9997 6.48841L12.3641 5.15112L14.9997 3.80554L7.5 0L0 3.80554L2.63566 5.15112L0 6.48841L2.63566 7.834L0 9.17129L7.5 13L15 9.17129L12.3643 7.834L12.3837 7.824C12.4028 7.81766 12.4187 7.80741 12.4356 7.79741ZM7.5 0.560721L13.897 3.80676L11.8124 4.87113L7.50027 7.07255L1.10301 3.80676L7.5 0.560721ZM3.03772 5.50795C3.08194 5.58916 3.17338 5.64624 3.2812 5.64624C3.3549 5.64624 3.42095 5.61965 3.47008 5.57721L4.08751 5.89233C3.94284 5.89843 3.82711 6.0033 3.82711 6.13403C3.82711 6.26866 3.94939 6.37793 4.10007 6.37793C4.25074 6.37793 4.37302 6.26866 4.37302 6.13403C4.37302 6.09184 4.35801 6.05428 4.33699 6.01964L7.15662 7.45913C7.12496 7.49888 7.10258 7.54498 7.10258 7.59742C7.10258 7.73205 7.22486 7.84132 7.37553 7.84132C7.5262 7.84132 7.64849 7.73205 7.64849 7.59742C7.64849 7.58498 7.64276 7.57449 7.64057 7.56254L10.3843 6.16184C10.4004 6.28281 10.5112 6.37769 10.651 6.37769C10.8017 6.37769 10.924 6.26842 10.924 6.13379C10.924 6.05452 10.8789 5.9872 10.8131 5.94282L11.4142 5.63599C11.4327 5.63965 11.4502 5.64599 11.4699 5.64599C11.5911 5.64599 11.6901 5.57429 11.7259 5.47673L11.8132 5.43209L13.897 6.48939L13.3557 6.76573C13.3129 6.68109 13.2184 6.62158 13.1079 6.62158C12.9572 6.62158 12.8349 6.73085 12.8349 6.86548C12.8349 6.91816 12.8576 6.96426 12.8892 7.00401L11.8124 7.55376L10.0688 8.44399C10.0901 8.40935 10.1054 8.37131 10.1054 8.32887C10.1054 8.19424 9.98308 8.08497 9.83241 8.08497C9.68173 8.08497 9.55945 8.19424 9.55945 8.32887C9.55945 8.45984 9.67573 8.56472 9.82067 8.57057L9.20297 8.88593C9.15384 8.84349 9.08751 8.81666 9.01354 8.81666C8.86287 8.81666 8.74058 8.92593 8.74058 9.06056C8.74058 9.08007 8.74823 9.09739 8.75314 9.11568L7.50027 9.75518L5.99438 8.98642C5.95889 8.88861 5.85954 8.81666 5.73807 8.81666C5.71815 8.81666 5.7004 8.82325 5.68184 8.82691L5.08107 8.52033C5.14685 8.47569 5.19216 8.40862 5.19216 8.32911C5.19216 8.19448 5.06988 8.08521 4.91921 8.08521C4.77945 8.08521 4.66836 8.18058 4.65253 8.30155L1.90823 6.90085C1.91014 6.8889 1.91615 6.87816 1.91615 6.86573C1.91615 6.73109 1.79386 6.62183 1.64319 6.62183C1.57796 6.62183 1.52064 6.645 1.47369 6.67914L1.10274 6.48988L3.03772 5.50795ZM13.8967 9.17251L7.49973 12.4383L1.10301 9.17251L3.18648 8.11521L7.5 10.3171L11.8132 8.11521L13.8967 9.17251Z" fill="#828282"/>
</svg>
