<?xml version="1.0" encoding="utf-8"?><svg xmlns="http://www.w3.org/2000/svg" xmlns:xlink="http://www.w3.org/1999/xlink"><symbol viewBox="0 0 85 85" id="Add-pic" xmlns="http://www.w3.org/2000/svg"><circle cx="42.5" cy="42.5" r="42"/><path d="M43.252 42.232h10.804v1.19H43.252v11.299h-1.235V43.423H31.64v-1.19h10.377v-11.32h1.235v11.32z"/></symbol><symbol viewBox="0 0 5 10" id="Arrow-back" xmlns="http://www.w3.org/2000/svg"><path d="M.077 4.92l4.465 4.466a.267.267 0 0 0 .38 0 .267.267 0 0 0 0-.379L.645 4.732 4.921.458A.27.27 0 1 0 4.733 0a.261.261 0 0 0-.189.079L.08 4.544a.266.266 0 0 0-.002.377z"/></symbol><symbol viewBox="0 0 21 18" id="Case" xmlns="http://www.w3.org/2000/svg"><ellipse cx="5.542" cy="6.316" rx="5.542" ry="6.316" transform="translate(4.958 1)"/><rect width="19" height="12.631" rx="4" transform="translate(1 4.37)"/></symbol><symbol viewBox="0 0 10 11" id="Delete" xmlns="http://www.w3.org/2000/svg"><path d="M4.516 5.029L.094 9.485c-.125.126-.125.33 0 .44.062.08.14.11.218.11a.307.307 0 0 0 .22-.094L5 5.438l4.453 4.503c.063.063.14.095.219.095a.307.307 0 0 0 .219-.095c.125-.126.125-.33 0-.44L5.484 5.028 9.906.557c.125-.126.125-.33 0-.441-.125-.126-.328-.126-.437 0L5 4.619.531.116C.406-.01.203-.01.094.116c-.125.126-.125.33 0 .44L4.516 5.03z"/></symbol><symbol viewBox="0 0 15 13" id="Group" xmlns="http://www.w3.org/2000/svg"><path d="M12.289 6.378c.15 0 .273-.109.273-.243 0-.135-.123-.244-.273-.244-.151 0-.273.109-.273.244 0 .134.122.243.273.243zm-9.826 0c.15 0 .272-.109.272-.243 0-.135-.122-.244-.272-.244-.151 0-.273.109-.273.244 0 .134.122.243.273.243zm.818.731c.151 0 .273-.11.273-.244 0-.135-.122-.244-.273-.244-.15 0-.273.11-.273.244 0 .135.123.244.273.244zm1.638 0c.15 0 .273-.11.273-.244 0-.135-.123-.244-.273-.244-.151 0-.273.11-.273.244 0 .135.122.244.273.244zm-.819.732c.15 0 .273-.109.273-.244 0-.134-.122-.243-.273-.243-.15 0-.273.109-.273.243 0 .135.122.244.273.244zm1.638 0c.15 0 .273-.109.273-.244 0-.134-.122-.243-.273-.243-.15 0-.273.109-.273.243 0 .135.122.244.273.244zm.819.733c.15 0 .273-.11.273-.244 0-.135-.122-.244-.273-.244-.151 0-.273.11-.273.244 0 .135.122.244.273.244zm1.637 0c.151 0 .273-.11.273-.244 0-.135-.122-.244-.273-.244-.15 0-.272.11-.272.244 0 .135.122.244.272.244zm.819-.733c.151 0 .273-.109.273-.244 0-.134-.122-.243-.273-.243-.15 0-.273.109-.273.243 0 .135.123.244.273.244zM7.376 9.304c.15 0 .273-.109.273-.244 0-.134-.123-.244-.273-.244-.151 0-.273.11-.273.244 0 .135.122.244.273.244zm2.457-2.195c.15 0 .272-.11.272-.244 0-.135-.122-.244-.272-.244-.151 0-.273.11-.273.244 0 .135.122.244.273.244zm1.637 0c.15 0 .273-.11.273-.244 0-.135-.122-.244-.273-.244-.15 0-.273.11-.273.244 0 .135.122.244.273.244z"/><path d="M12.436 7.797L15 6.488l-2.636-1.337L15 3.806 7.5 0 0 3.806 2.636 5.15 0 6.488l2.636 1.346L0 9.171 7.5 13 15 9.171l-2.636-1.337.02-.01c.019-.006.035-.017.052-.027zM7.5.561l6.397 3.246-2.085 1.064L7.5 7.073 1.103 3.807 7.5.56zM3.038 5.508a.275.275 0 0 0 .243.138.29.29 0 0 0 .19-.069l.617.315c-.145.006-.26.111-.26.242 0 .135.121.244.272.244.15 0 .273-.11.273-.244a.219.219 0 0 0-.036-.114l2.82 1.44a.222.222 0 0 0-.054.137c0 .135.122.244.273.244.15 0 .272-.109.272-.244 0-.012-.005-.023-.007-.034l2.743-1.401c.016.12.127.216.267.216.15 0 .273-.11.273-.244a.232.232 0 0 0-.11-.191l.6-.307c.019.004.036.01.056.01.121 0 .22-.072.256-.17l.087-.044 2.084 1.057-.541.277a.275.275 0 0 0-.248-.144c-.15 0-.273.109-.273.243 0 .053.023.1.054.139l-1.077.55-1.743.89a.219.219 0 0 0 .036-.115c0-.135-.122-.244-.273-.244-.15 0-.273.11-.273.244 0 .13.117.236.262.242l-.618.315a.289.289 0 0 0-.19-.07c-.15 0-.272.11-.272.245 0 .02.007.036.012.055l-1.253.64-1.506-.77a.268.268 0 0 0-.256-.17c-.02 0-.038.007-.056.01l-.6-.306a.233.233 0 0 0 .11-.19c0-.136-.122-.245-.273-.245a.26.26 0 0 0-.266.217L1.908 6.9c.002-.012.008-.023.008-.035 0-.135-.122-.244-.273-.244a.286.286 0 0 0-.17.057l-.37-.19 1.935-.981zm10.859 3.665L7.5 12.438 1.103 9.173l2.083-1.058L7.5 10.317l4.313-2.202 2.084 1.058z"/></symbol><symbol viewBox="0 0 15 13" id="Hamburger" xmlns="http://www.w3.org/2000/svg"><rect width="15" height="2.6" rx="1.3" transform="translate(0 5.201)"/><rect width="15" height="2.6" rx="1.3"/><rect width="15" height="2.6" rx="1.3" transform="translate(0 10.4)"/></symbol><symbol viewBox="0 0 119 20" id="Logo" xmlns="http://www.w3.org/2000/svg"><path d="M4.272 9.98h3.686c2.64 0 3.938-1.707 3.938-3.415S10.597 3.15 7.958 3.15H3.1v16.81H0V.266h7.917c4.733 0 7.079 3.15 7.079 6.261 0 2.77-1.885 5.427-5.613 6.034l6.87 7.4h-4.064l-7.917-8.614V9.98z"/><path d="M30.368 14.99H21.53l-2.094 4.972h-3.393L24.755.04h2.304L35.772 20H32.42l-2.053-5.01zm-7.707-2.656h6.534l-3.267-7.779-3.267 7.78zm17.928 7.627h-3.142V.266h2.555l7.163 9.563L54.328.266h2.471V19.96h-3.1V6.11l-5.696 7.665h-1.76L40.59 6.11v13.85zm22.996 0h-3.142V.266h2.555l7.163 9.563L77.324.266h2.471V19.96h-3.1V6.11L71 13.775h-1.76L63.544 6.11v13.85h.042zM86.496.266V19.96h-3.1V.266h3.1zm.587 9.145L94.664.266h3.896l-8.294 9.79 9.173 9.905h-4.021l-8.294-9.108V9.411h-.041z"/><path d="M113.596 14.99h-8.838l-2.094 4.971h-3.393L107.984 0h2.303L119 19.961h-3.351l-2.053-4.971zm-7.665-2.657h6.535l-3.268-7.78-3.267 7.78z"/></symbol><symbol viewBox="0 0 6 12" id="Next" xmlns="http://www.w3.org/2000/svg"><path d="M5.87 5.745L.544.123a.304.304 0 0 0-.45.002.353.353 0 0 0 .002.479l5.1 5.382L.14 11.413a.353.353 0 0 0 .002.479.31.31 0 0 0 .224.099.3.3 0 0 0 .223-.101L5.87 6.222a.352.352 0 0 0 0-.477z"/></symbol><symbol viewBox="0 0 14 12" id="Plus" xmlns="http://www.w3.org/2000/svg"><rect width="2" height="12" rx="1" transform="translate(6)"/><rect width="2" height="12" rx="1" transform="rotate(89.812 4 9.01)"/></symbol><symbol viewBox="0 0 15 7" id="Vector" xmlns="http://www.w3.org/2000/svg"><path d="M7.812 6.864L14.848.636a.34.34 0 0 0-.002-.526.465.465 0 0 0-.6.002L7.512 6.075.725.162a.465.465 0 0 0-.6.002.353.353 0 0 0-.124.262c0 .094.042.19.127.261l7.088 6.177a.464.464 0 0 0 .596 0z"/></symbol></svg>